<svg width="192" height="192" viewBox="0 0 192 192" fill="none" xmlns="http://www.w3.org/2000/svg">
  <defs>
    <linearGradient id="shell" x1="96" y1="30" x2="96" y2="162" gradientUnits="userSpaceOnUse">
      <stop stop-color="#E8DBFF"/>
      <stop offset="0.46" stop-color="#9B73FF"/>
      <stop offset="1" stop-color="#26104E"/>
    </linearGradient>
    <linearGradient id="blade" x1="96" y1="68" x2="96" y2="160" gradientUnits="userSpaceOnUse">
      <stop stop-color="#3D1A73"/>
      <stop offset="1" stop-color="#160922"/>
    </linearGradient>
  </defs>
  <path d="M96 22L126 54L158 86L142 146L96 170L50 146L34 86L66 54L96 22Z" fill="url(#shell)"/>
  <path d="M96 44L116 82L96 126L76 82L96 44Z" fill="#1A0B2E"/>
  <path d="M48 84L24 124L62 118L76 90L48 84Z" fill="url(#blade)"/>
  <path d="M144 84L168 124L130 118L116 90L144 84Z" fill="url(#blade)"/>
  <path d="M66 132L42 160L88 148L96 170L104 148L150 160L126 132L96 140L66 132Z" fill="#23103C"/>
  <path d="M96 64L108 88L96 112L84 88L96 64Z" fill="#F3EDFF"/>
  <path d="M62 60L96 82L130 60" stroke="#E1D4FF" stroke-width="4" stroke-linecap="round"/>
  <path d="M58 124L84 112" stroke="#C5B3FF" stroke-width="4" stroke-linecap="round"/>
  <path d="M134 124L108 112" stroke="#C5B3FF" stroke-width="4" stroke-linecap="round"/>
  <path d="M78 144H114" stroke="#B79CFF" stroke-width="4" stroke-linecap="round"/>
</svg>
